
<svg xmlns="http://www.w3.org/2000/svg" version="1.1" xmlns:xlink="http://www.w3.org/1999/xlink" preserveAspectRatio="none" x="0px" y="0px" width="210px" height="630px" viewBox="0 0 210 630">
<defs>
<g id="Layer0_0_MEMBER_0_MEMBER_0_MEMBER_0_FILL">
<path fill="#FF0000" fill-opacity="0" stroke="none" d="
M 70 490
L 0 490 0 560 70 560 70 490 Z"/>
</g>

<g id="Layer0_1_MEMBER_0_MEMBER_0_MEMBER_0_FILL">
<path fill="#FFFFFF" stroke="none" d="
M 35 500.5
L 33.5 500.65 17 509 33.5 517.5 33.5 522 36.5 522 36.5 500.65 35 500.5
M 59.5 525
L 59.5 524.85 10.5 524.85 10.5 525
Q 10.5 535.4 17.7 542.3 24.45 549.5 35 549.5 45.25 549.5 52.25 542.3 59.5 535.3 59.5 525 Z"/>
</g>

<g id="Layer0_2_MEMBER_0_MEMBER_0_MEMBER_0_FILL">
<path fill="#FF0000" fill-opacity="0" stroke="none" d="
M 210 490
L 210 420 140 420 140 490 210 490 Z"/>
</g>

<g id="Layer0_3_MEMBER_0_MEMBER_0_MEMBER_0_FILL">
<path fill="#FFFFFF" stroke="none" d="
M 162.6 463
Q 163.55 462.05 163.55 460.8 163.55 459.85 162.6 458.75 161.6 457.9 160.55 457.9 159.35 457.9 158.35 458.75 157.6 459.75 157.6 460.8 157.6 462.1 158.35 463 159.2 463.8 160.55 463.8 161.75 463.8 162.6 463
M 192.85 467.8
Q 192.85 463.35 189.55 459.9 186.05 456.65 181.6 456.65 179.2 456.65 177.35 457.5
L 170.55 469
Q 170.95 473.2 173.75 475.8 176.75 479.25 181.6 479.25 186.25 479.25 189.55 475.8 192.85 472.65 192.85 467.8
M 196 441
Q 196.85 438.65 196.1 436.55 195.3 434.6 194.6 433.55 190.4 426.4 184.1 436.3
L 161.1 475.9
Q 154.8 479.05 151.1 476.15 154.8 479.85 158.1 479.55
L 159.6 479.3
Q 161.4 478.7 163.1 476.5
L 187.1 435.8
Q 188.05 434.55 189.1 434.25 190.6 434.1 192.35 436 192.9 436.55 193.6 437.65 195.85 441.3 193.3 445.65 193.15 445.75 193.05 446.3 195 443.4 195.85 441.15
L 196 441
M 165.1 440
Q 165.1 443.05 167.05 444.75 168.8 446.8 171.85 446.8 174.5 446.8 176.5 444.75 178.55 442.8 178.55 440 178.55 437.55 176.5 435.25 174.5 433.3 171.85 433.3 168.95 433.3 167.05 435.25 165.1 437.35 165.1 440 Z"/>
</g>

<g id="Layer0_4_MEMBER_0_MEMBER_0_MEMBER_0_FILL">
<path fill="#FF0000" fill-opacity="0" stroke="none" d="
M 140 490
L 140 420 70 420 70 490 140 490 Z"/>
</g>

<g id="Layer0_5_MEMBER_0_MEMBER_0_MEMBER_0_FILL">
<path fill="#FFFFFF" stroke="none" d="
M 111.5 444.15
Q 108.15 439.8 103.4 439.8 98.8 439.8 95.4 444.15
L 94.5 445.5
Q 92.65 445.25 92.25 445.25 86.9 445.25 83.15 450.15 80.1 454.25 79.5 459.5
L 79 459.5
Q 76.8 459.5 75.25 460.9 77.5 467.15 82.3 471.75 91.3 480.8 104.05 480.8 116.75 480.8 125.65 471.75 131.25 466.35 133.5 459 131.5 457 129.25 457 128.65 457 127.75 457.25 127.05 453.95 125.05 451.25 122.05 447.25 117.8 447.25 116.15 447.25 113.75 448.3 112.75 446.1 111.5 444.15
M 131 439.65
Q 127.25 434.75 121.9 434.75 121.2 434.75 119.55 435
L 118.75 433.65
Q 115.2 429.25 110.75 429.25 105.9 429.25 102.65 433.65 101.65 435 100.8 436.75 103.25 435.15 106 435.15 110.4 435.15 114 439.5 115.55 441.95 116.3 443.65 118.15 442.65 120.3 442.65 124.55 442.65 127.55 446.55 129.7 449.5 130.3 452.55
L 131.75 452.4
Q 133.35 452.4 134.6 453.15
L 134.75 449 134.6 449
Q 134.1 443.85 131 439.65 Z"/>
</g>

<g id="Layer0_6_MEMBER_0_MEMBER_0_MEMBER_0_FILL">
<path fill="#FF0000" fill-opacity="0" stroke="none" d="
M 0 420
L 0 490 70 490 70 420 0 420 Z"/>
</g>

<g id="Layer0_7_MEMBER_0_MEMBER_0_MEMBER_0_FILL">
<path fill="#FFFFFF" stroke="none" d="
M 58 444.25
Q 58.25 443.6 58.25 442.9 58.25 441.05 56 440
L 28.7 427.75 27.25 427.4
Q 25.35 427.25 24.6 429.4
L 11.5 465.65
Q 11.25 466.15 11.25 466.9
L 11.25 467
Q 11.25 468.85 13.55 469.9
L 42.25 482.5
Q 44.2 482.75 44.95 480.5
L 58 444.25
M 26.5 436.15
Q 26.95 435.05 28.2 435.5
L 51.75 445.9
Q 52.85 446.65 52.5 447.65
L 50.5 453.3
Q 50.05 454.65 48.9 453.9
L 25.25 443.4
Q 24 442.95 24.5 441.75
L 26.5 436.15
M 33.15 455.4
Q 33.45 455.55 34 456.25 34.3 456.95 34 457.5 33.95 458.1 33.25 458.25 32.55 458.45 32 458.3
L 21.85 453.75
Q 21.15 453.35 21 452.8 20.7 452.2 20.85 451.65 21.25 451.05 21.6 450.9 22.35 450.6 22.95 450.9
L 33.15 455.4
M 33 464.9
Q 32.3 465.05 31.85 464.8
L 19.85 459.4
Q 19.15 459.1 19 458.5 18.6 458 18.95 457.4 19.1 456.8 19.7 456.5 20.15 456.35 20.85 456.65
L 32.9 461.9 33.75 462.8
Q 34.05 463.55 33.9 464 33.6 464.65 33 464.9
M 17.6 462.3
Q 18.2 462.15 18.75 462.3
L 41.15 472.25
Q 41.8 472.75 42 473.15 42.3 473.8 42 474.25 41.85 475.15 41.25 475.15 40.65 475.55 40 475.15
L 17.75 465.15
Q 17.2 464.95 16.75 464.25 16.55 463.8 16.75 463.15 16.9 462.6 17.6 462.3 Z"/>
</g>

<g id="Layer0_8_MEMBER_0_MEMBER_0_MEMBER_0_FILL">
<path fill="#FF0000" fill-opacity="0" stroke="none" d="
M 210 560
L 210 490 140 490 140 560 210 560 Z"/>
</g>

<g id="Layer0_9_MEMBER_0_MEMBER_0_MEMBER_0_FILL">
<path fill="#FFFFFF" stroke="none" d="
M 192 542
Q 199 535.1 199 525.05 199 515.3 192 508.15 184.95 501.15 175 501.15 165.1 501.15 158.1 508.15 151.1 515.15 151.1 525.05 151.1 535.2 158.1 542 164.85 549.05 175 549.05 185 549.05 192 542
M 193.85 525
Q 193.85 532.95 188.3 538.35 182.8 544 175 544 167.1 544 161.6 538.35 156.1 533 156.1 525 156.1 517.3 161.6 511.65 167.25 506.15 175 506.15 182.65 506.15 188.3 511.65 193.85 517.45 193.85 525
M 181.35 518.75
Q 178.65 516.05 175 516.05 171.3 516.05 168.6 518.75 166 521.35 166 525 166 528.85 168.6 531.5 171.2 534.05 175 534.05 178.8 534.05 181.35 531.5 184 528.85 184 525 184 521.5 181.35 518.75 Z"/>
</g>

<g id="Layer0_10_MEMBER_0_MEMBER_0_MEMBER_0_FILL">
<path fill="#FF0000" fill-opacity="0" stroke="none" d="
M 140 560
L 140 490 70 490 70 560 140 560 Z"/>
</g>

<g id="Layer0_11_MEMBER_0_MEMBER_0_MEMBER_0_FILL">
<path fill="#FFFFFF" stroke="none" d="
M 126.4 540.5
Q 126.65 534.95 125.5 530.25 121.1 531.6 117.5 528.8 120.6 528.8 124.05 525.75 119.1 513.5 104.15 503.65 103.7 511.7 100.65 519.05 104.45 521.25 108.75 520.25 104.75 525.25 98.75 524.25 96.15 529.15 90.25 535.5 98.45 538.25 107.75 538.25 100.1 543.2 87.55 538.25
L 84.3 541.25
Q 85.45 542.65 86.55 543.75 94.25 551.5 105.05 551.5 115.9 551.5 123.5 543.75 124.45 542.9 126.4 540.5 Z"/>
</g>

<g id="Layer0_12_MEMBER_0_MEMBER_0_MEMBER_0_FILL">
<path fill="#FF0000" fill-opacity="0" stroke="none" d="
M 70 560
L 0 560 0 630 70 630 70 560 Z"/>
</g>

<g id="Layer0_13_MEMBER_0_MEMBER_0_MEMBER_0_FILL">
<path fill="#FFFFFF" stroke="none" d="
M 62 612
L 62.2 611.5 62 610.75 53.25 595.5 50.75 595.5 59.5 610.75 59.7 611.5 59.5 612
Q 59.25 612.4 59 612.5
L 58.5 612.75 60.95 612.75
Q 61.25 612.75 61.5 612.5 61.75 612.4 62 612
M 50.25 585.25
L 47.75 585.25 51.25 591.45 53.75 591.45 50.25 585.25
M 49 593.35
L 46.5 593.35 47.75 595.5 50.25 595.5 49 593.35
M 48.25 591.45
L 49.5 593.35 52 593.35 50.75 591.45 48.25 591.45
M 16.1 591.45
L 15 593.35 16.5 593.35 15.25 595.5 18.25 595.5 9.35 610.75 9.3 611.5 9.35 612
Q 9.55 612.35 9.85 612.5 10.25 612.75 10.55 612.75
L 55.45 612.75
Q 55.75 612.75 56 612.5 56.25 612.4 56.5 612
L 56.7 611.5 56.5 610.75 47.75 595.5 44.75 595.5 43.5 593.35 46.5 593.35 45.25 591.45 48.25 591.45 44.75 585.25 41.75 585.25 38 578.7 37 578.7 33 571.95
Q 33 571.7 32.65 571.45
L 32 571.25 31.35 571.45 30.85 571.95 27 578.7 28 578.7 24.2 585.25 22.7 585.25 19.1 591.45 20.6 591.45 19.5 593.35 17.5 593.35 18.6 591.45 16.1 591.45
M 23.6 591.45
L 21.6 591.45 25.2 585.25 27.2 585.25 23.6 591.45 Z"/>
</g>

<g id="Layer0_14_MEMBER_0_MEMBER_0_MEMBER_0_FILL">
<path fill="#FF0000" fill-opacity="0" stroke="none" d="
M 0 0
L 0 70 70 70 70 0 0 0 Z"/>
</g>

<g id="Layer0_15_FILL">
<path fill="#FFFFFF" stroke="none" d="
M 48.75 29.9
Q 48.1 29.25 47.2 29.25
L 22.75 29.25
Q 21.9 29.25 21.1 29.9 20.5 30.55 20.5 31.5
L 20.5 48.8
Q 20.5 49.95 21.1 50.5 21.85 51.1 22.75 51.1
L 47.2 51.1
Q 48.15 51.1 48.75 50.5 49.5 49.85 49.5 48.8
L 49.5 31.65
Q 49.5 30.75 48.75 29.9
M 44.4 23.9
Q 44.4 20.55 41.7 17.75 38.8 14.9 34.9 14.75 31.15 14.75 28.1 17.65 25.35 20.55 25.35 23.9
L 25.35 26.65 28.85 26.65 28.85 24
Q 28.85 22 30.5 20.3 32.15 18.4 34.9 18.4 37.5 18.4 39.25 20.3 40.9 22.1 40.9 24
L 40.9 26.65 44.4 26.65 44.4 23.9 Z"/>
</g>

<g id="Layer0_16_MEMBER_0_MEMBER_0_MEMBER_0_FILL">
<path fill="#663399" fill-opacity="0" stroke="none" d="
M 140 560
L 70 560 70 630 140 630 140 560 Z"/>
</g>

<g id="Layer0_17_MEMBER_0_MEMBER_0_MEMBER_0_FILL">
<path fill="#FFFFFF" stroke="none" d="
M 92.05 575.8
L 91.4 576.45 93 576.45
Q 91.25 578.3 90.25 580.2
L 88.75 580.2
Q 86.6 584.05 86.5 588.6
L 86.5 606.7 84.5 606.7 84.5 611.75 86.5 611.75 86.5 616.5
Q 91.2 620.35 95.8 616.5 97.6 615.25 99.15 614.85 102.15 614.1 105.15 616.5
L 105.25 616.5
Q 109.5 619.85 113.8 617
L 114.65 616.5
Q 119.3 612.75 124.3 616.5
L 124.3 611.75 122.3 611.75 122.3 606.7 124.3 606.7 124.3 588.6
Q 124.25 584.05 122.05 580.2
L 123.55 580.2
Q 122.55 578.25 120.9 576.45
L 119.3 576.45 118.8 575.8
Q 113.15 570.3 105.4 570.3 97.65 570.3 92.05 575.8
M 88.3 591.25
Q 88.45 590.3 89.25 589.2 90.7 586.9 93.55 585.25 96.6 583.5 99.15 583.45 101.75 583.25 102.65 584.75 103.5 586.2 102.05 588.45 100.95 590.05 99.15 591.25 98.35 591.85 97.65 592.25 94.7 594 92.05 594.2 89.4 594.3 88.65 592.8 88.15 592.05 88.3 591.25
M 108.8 588.45
Q 107.25 586.15 108.15 584.75 109 583.25 111.65 583.45 114.1 583.5 117.25 585.25 120.1 586.9 121.55 589.2 122.35 590.3 122.5 591.25 122.6 592.15 122.15 592.8 121.35 594.3 118.65 594.2 116 593.95 113.15 592.25 112.55 591.95 111.55 591.25 109.75 589.95 108.8 588.45
M 112.55 603.5
L 112.55 604.25
Q 110.25 602.3 107.9 601.45 104.55 600.25 101.5 601.45 99.25 602.3 97.3 604.25
L 97.3 603.5
Q 97.3 602.25 97.55 601.45 97.9 600.2 98.8 598.85
L 99.55 598.1
Q 101.8 595.85 104.9 595.85 108.05 595.85 110.3 598.1
L 111 598.85
Q 111.95 600.1 112.3 601.45 112.55 602.25 112.55 603.5 Z"/>
</g>

<g id="Layer0_18_MEMBER_0_MEMBER_0_MEMBER_0_FILL">
<path fill="#FFFFFF" stroke="none" d="
M 180.9 572.05
Q 178 571.35 175.05 571.35 172 571.35 169.1 572.05
L 172.1 572.05
Q 169.05 572.85 166.75 574.2 164.7 575.3 163.1 576.7
L 160.1 576.7 159.85 576.85 158.3 578.3
Q 156.95 579.65 155.9 581 153.55 584.2 152.35 587.75 151.35 591.05 151.35 595.05
L 151.4 597.35 152.4 597.35 152.65 599.3 151.65 599.3
Q 152 600.85 152.1 601.1
L 152.3 602 153.85 602
Q 155.05 606.05 157.65 609.35
L 156.15 609.35
Q 156.95 610.4 158.3 611.75 165.25 618.75 175.05 618.75 184.75 618.75 191.65 611.75 193 610.4 193.8 609.35
L 195.35 609.35
Q 198 606 199.25 602
L 197.65 602
Q 198 600.95 198.35 599.3
L 199.35 599.3 199.6 597.35 198.6 597.35 198.65 595.05
Q 198.65 591.2 197.6 587.75 196.4 584.2 194.05 581 193 579.65 191.65 578.3
L 190.1 576.85 189.85 576.7 192.9 576.7
Q 191.35 575.35 189.3 574.2 186.7 572.8 183.9 572.05
L 180.9 572.05
M 168.1 576.7
L 171.1 576.7
Q 174.25 575.5 178 575.5 181.7 575.5 184.9 576.7
L 181.85 576.7 182.35 576.85
Q 185.8 578.3 188.6 581
L 188.85 581.25
Q 191.7 584.1 193.25 587.75 194.6 591.15 194.6 595.05 194.6 596.4 194.4 597.35
L 195.5 597.35 195.15 599.3 194.1 599.3
Q 193.9 600.6 193.35 602
L 194.85 602
Q 193.4 605.8 190.35 608.85
L 189.85 609.35 188.35 609.35
Q 182.7 614.7 175 614.7 167.25 614.7 161.6 609.35
L 163.1 609.35 162.6 608.85
Q 159.55 605.8 158.1 602
L 156.6 602 156.35 601.1
Q 155.95 600.05 155.85 599.3
L 156.85 599.3 156.6 597.35 155.55 597.35
Q 155.55 597.25 155.4 595.5
L 155.4 595.05
Q 155.4 591.25 156.8 587.75 158.15 584.2 161.1 581.25
L 161.35 581
Q 164.15 578.3 167.55 576.85
L 168.1 576.7
M 175 577.55
Q 174.3 577.55 173.65 578.1 173.1 578.75 173.1 579.35
L 173.1 595.05 173.15 595.45 173.35 595.85
Q 173.4 596.1 173.65 596.35
L 174.1 596.7
Q 174.55 596.85 174.6 596.85
L 174.85 596.95 184.4 596.95
Q 185.15 596.95 185.65 596.35 186.25 595.85 186.25 595.05 186.25 594.35 185.65 593.75 185.15 593.25 184.4 593.25
L 176.85 593.25 176.85 579.35
Q 176.85 578.75 176.35 578.1 175.7 577.55 175 577.55 Z"/>
</g>

<g id="Symbol_3_0_Layer0_0_FILL">
<path fill="#FFFFFF" stroke="none" d="
M -2.95 37.75
L -6.65 35.6 -6.65 35.6 -14.15 48.65
Q -14.65 49.45 -14.4 50.3 -14.2 51.15 -13.4 51.6
L -13.35 51.65
Q -12.6 52.15 -11.75 51.85 -10.9 51.65 -10.4 50.8
L -2.95 37.75
M 6.8 38.65
Q 19.2 19.1 12.1 3.05
L -4.6 32.05 6.8 38.65 Z"/>
</g>

<g id="Symbol_3_0_Layer0_1_FILL">
<path fill="#FFFFFF" stroke="none" d="
M 33.15 35.9
Q 33.75 34.9 33.45 33.8 33.15 32.7 32.15 32.1 31.15 31.55 30.1 31.85 29 32.15 28.4 33.15 27.85 34.15 28.15 35.2 28.4 36.3 29.4 36.85 30.4 37.45 31.5 37.15 32.6 36.9 33.15 35.9
M 17.95 39.35
L 18.95 42.95
Q 19.35 44.35 20.6 45.1 21.85 45.8 23.25 45.45 24.6 45.05 25.35 43.8 26.05 42.55 25.7 41.15
L 21.7 26.15
Q 17.75 30.85 11.65 34.75
L 12.4 37.5
Q 12.75 38.85 14 39.6 15.25 40.3 16.7 40 17.4 39.8 17.95 39.35
M 20.2 20.55
Q 19.8 19.1 18.55 18.4 18.5 18.35 18.4 18.3
L 13.05 27.5 9.1 25.2 10.55 30.65
Q 16.7 26.4 20.35 21.15
L 20.2 20.55 Z"/>
</g>

<g id="Layer0_20_MEMBER_0_MEMBER_0_MEMBER_0_FILL">
<path fill="#FF0000" fill-opacity="0" stroke="none" d="
M 0 0
L 0 70 70 70 70 0 0 0 Z"/>
</g>
</defs>

<g transform="matrix( 1, 0, 0, 1, 0,-350) ">
<use xlink:href="#Layer0_0_MEMBER_0_MEMBER_0_MEMBER_0_FILL"/>
</g>

<g transform="matrix( 1, 0, 0, 1, 0,-350) ">
<use xlink:href="#Layer0_1_MEMBER_0_MEMBER_0_MEMBER_0_FILL"/>
</g>

<g transform="matrix( 1, 0, 0, 1, 0,-350) ">
<use xlink:href="#Layer0_2_MEMBER_0_MEMBER_0_MEMBER_0_FILL"/>
</g>

<g transform="matrix( 1, 0, 0, 1, 0,-350) ">
<use xlink:href="#Layer0_3_MEMBER_0_MEMBER_0_MEMBER_0_FILL"/>
</g>

<g transform="matrix( 1, 0, 0, 1, 0,-350) ">
<use xlink:href="#Layer0_4_MEMBER_0_MEMBER_0_MEMBER_0_FILL"/>
</g>

<g transform="matrix( 1, 0, 0, 1, 0,-350) ">
<use xlink:href="#Layer0_5_MEMBER_0_MEMBER_0_MEMBER_0_FILL"/>
</g>

<g transform="matrix( 1, 0, 0, 1, 0,-350) ">
<use xlink:href="#Layer0_6_MEMBER_0_MEMBER_0_MEMBER_0_FILL"/>
</g>

<g transform="matrix( 1, 0, 0, 1, 0,-350) ">
<use xlink:href="#Layer0_7_MEMBER_0_MEMBER_0_MEMBER_0_FILL"/>
</g>

<g transform="matrix( 1, 0, 0, 1, 0,-350) ">
<use xlink:href="#Layer0_8_MEMBER_0_MEMBER_0_MEMBER_0_FILL"/>
</g>

<g transform="matrix( 1, 0, 0, 1, 0,-350) ">
<use xlink:href="#Layer0_9_MEMBER_0_MEMBER_0_MEMBER_0_FILL"/>
</g>

<g transform="matrix( 1, 0, 0, 1, 0,-350) ">
<use xlink:href="#Layer0_10_MEMBER_0_MEMBER_0_MEMBER_0_FILL"/>
</g>

<g transform="matrix( 1, 0, 0, 1, 0,-350) ">
<use xlink:href="#Layer0_11_MEMBER_0_MEMBER_0_MEMBER_0_FILL"/>
</g>

<g transform="matrix( 1, 0, 0, 1, 0,-350) ">
<use xlink:href="#Layer0_12_MEMBER_0_MEMBER_0_MEMBER_0_FILL"/>
</g>

<g transform="matrix( 1, 0, 0, 1, 0,-350) ">
<use xlink:href="#Layer0_13_MEMBER_0_MEMBER_0_MEMBER_0_FILL"/>
</g>

<g transform="matrix( 1, 0, 0, 1, 0,0) ">
<use xlink:href="#Layer0_14_MEMBER_0_MEMBER_0_MEMBER_0_FILL"/>
</g>

<g transform="matrix( 1, 0, 0, 1, 0,0) ">
<use xlink:href="#Layer0_15_FILL"/>
</g>

<g transform="matrix( 1, 0, 0, 1, 0,-350) ">
<use xlink:href="#Layer0_16_MEMBER_0_MEMBER_0_MEMBER_0_FILL"/>
</g>

<g transform="matrix( 1, 0, 0, 1, 0,-350) ">
<use xlink:href="#Layer0_17_MEMBER_0_MEMBER_0_MEMBER_0_FILL"/>
</g>

<g transform="matrix( 1, 0, 0, 1, 0,-350) ">
<use xlink:href="#Layer0_18_MEMBER_0_MEMBER_0_MEMBER_0_FILL"/>
</g>

<g transform="matrix( 1, 0, 0, 1, 27.4,288.1) ">
<g transform="matrix( 0.70709228515625, 0.7070770263671875, -0.7070770263671875, 0.70709228515625, 24.95,3.4) ">
<use xlink:href="#Symbol_3_0_Layer0_0_FILL"/>
</g>

<g transform="matrix( 0.9659271240234375, 0.2587890625, -0.2587890625, 0.9659271240234375, 7.2,-0.9) ">
<use xlink:href="#Symbol_3_0_Layer0_1_FILL"/>
</g>
</g>

<g transform="matrix( 1, 0, 0, 1, 0,280) ">
<use xlink:href="#Layer0_20_MEMBER_0_MEMBER_0_MEMBER_0_FILL"/>
</g>
</svg>
