
<svg xmlns="http://www.w3.org/2000/svg" version="1.1" xmlns:xlink="http://www.w3.org/1999/xlink" preserveAspectRatio="none" x="0px" y="0px" width="370px" height="80px" viewBox="0 0 370 80">
<defs>
<g id="Layer0_0_MEMBER_0_MEMBER_0_MEMBER_0_FILL">
<path fill="#EEEEEE" stroke="none" d="
M 144.25 24.15
Q 144.5 22.05 143.35 21.65 142.25 20.9 133.05 20.9
L 130.8 20.9 130.65 21 129.15 21.55
Q 129.9 14.4 129.5 14
L 129.4 13.95
Q 128.8 13.1 127.55 13.1 126.2 13.1 125.3 14
L 125.25 14.1
Q 124.4 14.65 120.65 38.75 116.6 65.6 116.8 66.35 117.4 68.5 119.4 68.5 120.2 68.55 121.4 67.7 122.95 66.75 123.4 64.7
L 123.55 64.6
Q 123.8 63.5 124.8 56.85
L 125.4 52.35 129.6 57.95
Q 133.55 63.3 135 64.95 136.9 67.2 137.9 67.1
L 138.1 67.2
Q 139.5 67.1 140.5 66.25
L 140.55 66.2
Q 141.6 65.3 141.8 63.6
L 141.8 62.55
Q 141.75 62.55 141.8 62.5 141.7 61.65 133.65 51.1
L 126.9 42 128.65 26.25
Q 129.55 26.9 130.75 27.05 132.8 27.45 136.6 27.5 142.6 27.45 143.1 26.55 144 25.85 144.25 24.15
M 187.8 13.85
L 187.65 13.65
Q 187.35 12.95 187.15 12.75
L 186.8 12.4
Q 185.85 11.65 185.15 11.75 184.45 11.75 183.6 12.4 182.75 12.75 182.5 15 182.3 16.25 182.3 22.4 182.2 33.1 182.25 37.35 182.2 63.9 182.5 64.95 182.75 67.2 185.35 67.2 188 67.15 188.5 64.7
L 188.55 64.45
Q 188.7 63.65 188.6 47.55
L 188.5 36.95
Q 188.4 29.9 188.35 29.15
L 188 14.95 187.8 13.85
M 221.6 41.75
Q 219.7 41.85 218.65 43.1 217.55 44.4 217.65 46 217.8 47.75 219.15 48.8
L 219.3 49
Q 219.5 49.1 219.6 49.05 219.45 51.65 222.8 51.55 224.4 51.6 225 50.6 226.85 48.55 226.55 46.2
L 226.25 44.8
Q 224.85 41.85 221.6 41.75
M 336 18
Q 336.25 16.95 334.25 15.4 332.65 14.2 331.45 14.2 330 14 329 17.5
L 329.1 17.55 326.6 27.3
Q 325.45 31.75 325.25 32.95
L 317.5 24.8
Q 308.9 15.9 308.75 15.85 307.65 15 306.7 15 305.75 15 305 15.65
L 304.95 15.65
Q 303.9 16.4 304.35 17.75 304.65 19.1 318 33.2
L 317.95 33.2 320.7 36.1 320.75 36.1 323.5 39.2 320.85 49.6
Q 317.8 61.75 318.45 63.25 318.85 64.7 320.25 65.75
L 320.5 65.85
Q 321.7 66.7 322.75 66.6 323.1 66.65 323.75 66.35
L 323.85 66.35
Q 324.7 66.2 327.5 54.25
L 327.5 54.2
Q 328.1 51.45 328.85 48.95
L 328.85 49 329.75 45.75 348.35 65.35
Q 351.6 68.6 352.7 68.25 354.1 68.25 354.75 67.2 355.35 66 354.75 64.45 354.6 63.55 342.2 50.55
L 342.2 50.6 331.25 39.2
Q 331.45 37.95 333.6 29 335.92421875 19.6548828125 336 18
M 55.65 60.25
Q 56.75 56.3 55.15 54.7
L 55.05 54.7
Q 54.1 53.75 52.4 53.75 50.25 53.75 48.25 55.35 46.3 57 45.5 59.35 44.2 63.3 46.9 65.45 47.2 65.85 48.3 65.85 49.7 65.95 51.65 64.95 53.8 63.85 54.7 62.35
L 54.75 62.25
Q 55.15 61.6 55.65 60.25
M 28.75 48.8
L 28.75 49
Q 28.95 49.1 29 49.05 27.8 51.65 31.1 51.55 32.8 51.65 33.75 50.6 36.55 48.5 37.25 46.2 37.45 45.75 37.5 45.05 37.6 44.9 37.55 44.8 37.5 41.85 34.3 41.75 32.4 41.85 30.75 43.1 29.05 44.45 28.5 46 27.85 47.7 28.75 48.8
M 46 17.5
Q 45.15 17 44.5 17 43.45 17 42.2 17.9
L 42.25 17.8
Q 40.85 18.6 40 20.75 39.45 22.35 39.9 23.3
L 39.8 23.3
Q 40 24.65 42.25 24.55 43.8 24.55 45.2 23.5 46.5 22.4 46.95 21.05 47.75 18.8 45.95 17.5
L 46 17.5
M 40.75 12.6
L 40.7 12.35
Q 40.5 11.55 38.9 11.6 37.2 11.6 36.25 12.4
L 36.05 12.6
Q 35.25 13.15 31.35 22.75 29 28.35 28.7 29.3 27.25 33.05 28 33.95
L 27.95 34
Q 28.3 35.1 36.7 35.25
L 42.9 35.3 39.05 46.6
Q 34.25 61.05 34.7 61.95 34.85 63.2 37.05 63.25 38.65 63.25 39.65 62.25
L 39.8 62
Q 40.4 61.7 44.3 49.75
L 45.75 45.45
Q 49.2 34.6 49.55 33.2 50.45 30.25 49.95 29.65
L 49.9 29.55
Q 49.4 28.65 47.65 28.5
L 47.55 28.5
Q 46.7 28.4 41.25 28.4
L 35.25 28.4 38.7 19.25
Q 40.95 12.85 40.75 12.6
M 114.05 35.95
Q 114.3 33.4 114.15 32.75
L 114.05 32.85
Q 114 31.55 112.8 31.05 111.35 30.35 110.05 31.25
L 110 31.25
Q 108.7 31.7 107.5 38.2 106.8 41.8 106.3 45.1
L 104.25 56.55 102.75 56.75
Q 98.55 57.05 92.8 57.05 87.7 57.05 86.4 57.2 84.45 57.35 83.5 58.45
L 83.55 58.45
Q 82.15 59.6 81.9 61 81.15 63.5 83.4 64.45 83.8 64.7 87.55 64.7 92.9 64.7 100.15 64.25 108.15 63.8 108.65 63.2 108.7 63.1 108.9 63 109.9 62.25 112 50.1
L 112.05 50.05
Q 113.7 39.5 114.05 36
L 114.05 35.95
M 87.4 20
Q 88.4 15.8 88.25 14.9
L 88.3 14.85
Q 88 13.05 86.25 13.1 84.95 13.05 83.8 14.15 82.85 15.05 79.15 27.5 77.2 34.45 73.4 47.25
L 73.05 48.25 70.3 33.7 70.3 33.75
Q 66.9 15.4 65.9 14.4 65.3 14 64.65 14 63.55 14 62.4 14.9
L 62.5 14.85
Q 61.3 15.65 60.95 16.9 60.6 17.55 64.3 39.75 68.1 62 68.4 64.45
L 68.4 64.5
Q 68.7 66.95 71.3 67.1 72.75 67 73.75 66.1
L 73.65 66.2
Q 75.3 65.25 85.55 27
L 87.4 20
M 110.75 15.65
Q 107.05 16.7 103.5 19.55 99.8 22.55 97.9 25.9 96 29.05 95.15 33 94.65 35.3 94.65 37.6
L 94.65 37.7
Q 94.9 43.25 97.55 42.95 98.5 42.85 98.8 42.55 100.65 41.8 101.05 39.75 101.35 38.5 101.05 37.1 100.75 35.65 101.3 33 101.8 30.05 103.15 27.75 107.4 21.35 114.5 21 118.8 20.8 119.4 19.4
L 119.5 19.25
Q 120.25 18.15 119.8 16.55
L 119.8 16.5
Q 119.45 15.1 116.65 15
L 115.65 15
Q 112.6 15.05 110.65 15.7
L 110.75 15.65
M 173.55 23.75
Q 169.05 17.4 162 15.6 160.2 15 156.05 15 153.65 15.05 152.85 15.25
L 152.5 15.4
Q 151.45 16.05 151.3 17.55 151.15 19.1 152 19.8 152.5 20.6 155.85 20.65 161.65 20.6 165.9 24.25 170.35 27.95 171.6 33.85
L 171.6 33.95 171.75 34.45
Q 168.55 34.45 162.55 34.7 154.45 35 152.25 35.35
L 152.15 35.35
Q 149.15 36.1 149.1 38.6 148.75 41.85 152.1 41.75 153.3 41.75 153.8 41.5 155.9 41.2 164.05 41.2
L 171.8 41
Q 171.4 43.85 169.8 46.85 168.2 49.95 165.75 52.5 164.25 54 161.85 55.45 159.7 56.7 159.05 56.95 157.35 56.9 156.85 58.3 156.55 58 153.65 58 148.7 58.25 148.15 58.55 148.1 58.65 147.85 58.8 146.85 59.6 146.8 61.5 146.6 63.35 147.55 64.25 147.95 64.9 150.1 65.45
L 151.6 65.6
Q 154.25 65.5 156.4 65.2 159.9 64.85 160.35 63.8
L 162 63.1 161.9 63.1
Q 168.9 60.25 173.55 53 177.95 45.95 178.1 38.35 178.2 30.15 173.55 23.65
L 173.55 23.75
M 204.1 29.25
L 204.05 29.25
Q 201.8 25.65 197.8 23.4 194.85 21.95 193.35 22 191.9 22 191.05 23.05
L 191.05 23.15
Q 190.25 24 190.35 24.9 190.05 26.9 194 28.75 196.1 29.7 197.1 30.65 197.95 31.4 199.1 33.25 200.05 34.95 200.1 37.75 200.35 42.75 196.8 45.5 196.75 45.55 196.75 45.5 195.05 46.95 194.15 47.85 193 49.05 193.15 50.25 193.3 51 193.3 51.05
L 193.3 51.1
Q 193.95 53.7 196.15 53.7 197.7 53.7 200.25 51.95
L 200.3 51.85
Q 206.55 47 206.6 39 206.7 38.95 206.6 38.85
L 206.6 38.5 206.65 38.45
Q 206.75 37.9 206.65 37.75 206.45 33 204.1 29.25
M 214.85 12.35
Q 214.3 11.5 212.75 11.6 211 11.6 210.5 12.4
L 210.35 12.6
Q 209.8 13.15 210.1 22.75
L 210.4 29.3
Q 210.7 33.05 211.8 33.95
L 211.8 34
Q 212.7 35.1 221.1 35.25
L 227.3 35.3 228.55 46.6
Q 230.05 60.95 230.9 61.95 231.7 63.2 233.9 63.25 235.5 63.25 236.05 62.25
L 236.15 62
Q 236.6 61.7 235.15 49.75
L 234.65 45.45
Q 233.5 35.95 233.05 33.2 232.5 30.15 231.85 29.65
L 231.8 29.55
Q 230.8 28.65 229 28.5
L 228.9 28.5
Q 228.05 28.4 222.6 28.4
L 216.6 28.4 215.9 19.25
Q 215.45 12.95 215.1 12.6
L 214.85 12.35
M 224.35 23.5
Q 225.15 22.5 225.05 21.05 224.75 18.75 222.4 17.5
L 222.5 17.5
Q 221.45 17 220.8 17 219.8 17 218.85 17.8 217.8 18.65 218 20.75 218.05 22.2 218.9 23.3 219.7 24.65 221.9 24.55 223.45 24.55 224.35 23.5
M 244.1 22.5
Q 246.05 20.05 249.1 19.9
L 251.5 34.35
Q 255.75 60.25 256.25 62.25 256.25 63.8 259.45 64.7 261.4 65.3 263.5 65.25 265.6 65.1 268.1 64 270.55 63 272 61.25
L 272.1 61.25
Q 273.6 59.5 274.45 56.45 275 54.25 275 53.05 275 52.25 274.6 49.3
L 274.5 49.25
Q 273.75 45.6 272 42.75
L 271.95 42.75
Q 269.35 38.5 267.35 38.75 266.25 38.7 265.5 39.8
L 264.75 40.75
Q 264.6 41.05 264.6 41.5 264.7 42.05 264.95 42.45
L 266.35 44.6
Q 268.05 47.35 268.45 49.2 268.6 50 268.5 51.35 268.2 54.35 266.6 56 264.95 57.8 262.45 57.8
L 261.75 57.8 256.95 30.05
Q 254.35 15.6 253.55 15.2
L 253.6 15.2
Q 252.8 14.25 248.05 14.25 245.45 14.35 244.75 14.6 236.05 17.75 236.8 27.55 236.75 27.65 236.8 27.65 236.75 27.85 236.85 28.4 236.75 28.5 236.85 28.5 236.95 29.3 236.9 29.4 237.2 31.5 238.35 33.25
L 238.35 33.3
Q 240.8 37.2 243.1 36.95 243.75 36.95 244.35 36.5
L 244.4 36.5
Q 245.8 35.45 245.5 33.85 245.25 32.45 244.15 31.5
L 244.1 31.5
Q 242.8 30.05 242.55 28.15 242.1 24.95 244.1 22.5
M 297.75 21.05
Q 296.05 18.6 293.35 16.15
L 293.45 16.15
Q 290.7 13.8 288.75 13.15 286.6 12.3 284.5 12.35 282.15 12.3 280.95 13.1 279.35 13.8 278 15.95 276.6 18.2 276.1 20.75 274.3 27.7 276.5 37.5 278.3 45.7 282.35 53 286.75 60.85 292 64.35 295.5 66.65 298.7 66.6 303.7 66.75 306.35 61 308.7 55.95 307.85 47.3 307.3 42.15 306 37.6 303.25 28.5 297.85 21.15
L 297.75 21.05
M 286 18.5
Q 287.2 18.5 288.35 19 291.3 20.75 294.35 25.9 297.8 31.45 299.6 38 300.35 41.05 300.6 42.6 302.45 54.5 298.5 58.25 297.9 58.8 296.75 58.8 294.6 58.75 291.95 55.95 288.75 52.6 286.1 47 284.35 43.6 282.95 37.5 281.55 31.55 281.6 28.4 281.75 22.2 284 19.65
L 284.1 19.55
Q 284.95 18.5 286 18.5 Z"/>
</g>
</defs>

<g transform="matrix( 1, 0, 0, 1, 0,0) ">
<use xlink:href="#Layer0_0_MEMBER_0_MEMBER_0_MEMBER_0_FILL"/>
</g>
</svg>
